<?xml version="1.0" encoding="UTF-8" standalone="no"?><!DOCTYPE svg PUBLIC "-//W3C//DTD SVG 1.1//EN" "http://www.w3.org/Graphics/SVG/1.1/DTD/svg11.dtd"><svg width="100%" height="100%" viewBox="0 0 1024 1024" version="1.1" xmlns="http://www.w3.org/2000/svg" xmlns:xlink="http://www.w3.org/1999/xlink" xml:space="preserve" xmlns:serif="http://www.serif.com/" style="fill-rule:evenodd;clip-rule:evenodd;stroke-linejoin:round;stroke-miterlimit:2;"><g id="Background"><path d="M125.5,0l773,0c1.449,2.316 2.084,1.347 15.014,2.362c0.656,0.052 0.363,1.282 8.008,1.89c3.152,0.251 2.872,1.25 5.958,1.613c0.134,0.016 3.468,1.494 10.109,3.303c0.938,0.256 0.831,0.501 11.133,4.884c1.422,0.605 22.911,11.99 31.887,21.354c17.76,18.527 18.435,18.186 30.015,41.03c0.034,0.067 3.596,9.861 5.091,12.948c1.202,2.481 0.442,2.705 1.675,5.169c0.545,1.09 0.02,1.231 3.601,14.799c0.029,0.109 1.566,16.077 1.588,16.103c0.385,0.444 1.034,0.602 1.419,1.046l0,772c-0.441,0.218 -1.034,-0.198 -1.475,0.02c-0.718,0.354 -1.051,14.944 -1.46,15.778c-1.876,3.823 -0.528,4.107 -1.838,8.127c-3.3,10.124 -3.293,10.092 -3.297,10.126c-1.583,11.21 -17.124,36.43 -21.476,40.905c-7.416,7.626 -8.578,13.3 -29.882,27.161c-28.224,18.364 -47.967,20.181 -61.095,21.523c-2.845,0.291 -3.379,-0.599 -4.975,1.86l-773,0c-0.217,-0.375 0.04,-0.912 -0.177,-1.287c-0.971,-1.677 -46.107,2.496 -88.511,-40.536c-5.557,-5.639 -19.966,-23.328 -25.667,-40.578c-1.273,-3.851 -4.251,-8.518 -5.316,-16.164c-0.293,-2.105 -1.261,-1.754 -1.461,-3.917c-0.346,-3.744 -0.041,-3.763 -1.484,-7.17c-0.309,-0.731 -0.75,-15.42 -1.463,-15.781c-0.423,-0.214 -0.998,0.149 -1.421,-0.065l0,-773c0.568,-0.377 0.654,0.16 1.188,-0.195c0.058,-0.038 0.246,-0.163 0.315,-0.805c1.499,-13.797 0.91,-13.794 1.149,-14.971c0.726,-3.581 1.124,-3.43 1.521,-7.075c0.171,-1.566 1.369,-3.194 1.509,-3.905c0.147,-0.746 1.121,-5.678 2.359,-9.206c3.597,-10.253 4.164,-9.954 4.432,-10.852c1.48,-4.966 2.994,-5.971 3.958,-8.026c9.576,-20.415 31.193,-41.71 50.181,-51.735c26.873,-14.189 28.093,-11.176 34.9,-14.204c1.533,-0.682 5.182,-0.15 6.972,-1.058c4.644,-2.354 16.469,-0.896 17.007,-1.981c0.22,-0.445 -0.21,-1.044 0.01,-1.488Z" style="fill:#fefefe;"/><path d="M595.309,507.275c0,0 1.333,265.98 -1.786,271.785c-3.579,6.66 -42.838,79.708 -46.478,82.29c-3.368,2.389 -8.997,-10.615 -41.086,-68.392c-47.83,-86.119 -267.262,-489.016 -290.44,-531.573c-4.18,-7.675 -44.915,-82.467 -52.686,-95.706c-3.935,-6.703 3.768,-4.142 97.056,-4.404c15.046,-0.042 13.26,4.702 20.243,18.044c30.373,58.035 210.557,385.858 215.875,399.004c0.84,2.077 4.596,3.286 3.893,-2.213c-3.437,-26.882 -2.086,-162.275 -1.09,-163.254c0.451,-0.443 0.598,-1.123 145.86,-1.078c71.423,0.022 71.262,-0.241 142.618,-0.202c8.356,0.005 0.557,8.805 -22.552,51.798c-17.024,31.673 -21.618,43.172 -26.397,43.641c-3.722,0.365 -103.937,0.249 -143.03,0.259Z" style="fill:#2c3841;"/><path d="M707.176,161.301c219.403,0.48 223.172,-1.855 222.724,2.722c-0.015,0.156 -29.2,51.887 -31.673,56.435c-5.156,9.484 -18.339,31 -21.504,31.243c-33.644,2.579 -176.643,0.139 -206.507,10.463c-75.183,25.991 -74.386,94.736 -76.651,96.808c-1.418,1.297 -92.672,2.19 -94.425,-0.328c-1.55,-2.226 1.54,-30.344 5.38,-46.062c12.97,-53.085 58.137,-113.186 122.371,-137.312c35.574,-13.361 73.765,-13.881 80.284,-13.969Z" style="fill:#2c3841;"/></g></svg>
