<?xml version="1.0" encoding="UTF-8" standalone="no"?><!DOCTYPE svg PUBLIC "-//W3C//DTD SVG 1.1//EN" "http://www.w3.org/Graphics/SVG/1.1/DTD/svg11.dtd"><svg width="100%" height="100%" viewBox="0 0 1024 1024" version="1.1" xmlns="http://www.w3.org/2000/svg" xmlns:xlink="http://www.w3.org/1999/xlink" xml:space="preserve" xmlns:serif="http://www.serif.com/" style="fill-rule:evenodd;clip-rule:evenodd;stroke-linejoin:round;stroke-miterlimit:2;"><g id="Background"><path d="M577.257,528.031c0,0 1.759,350.918 -2.357,358.577c-4.722,8.787 -56.518,105.162 -61.321,108.569c-4.444,3.152 -11.87,-14.005 -54.206,-90.233c-63.104,-113.62 -352.61,-645.179 -383.189,-701.326c-5.515,-10.127 -59.258,-108.803 -69.511,-126.269c-5.191,-8.843 4.971,-5.465 128.05,-5.81c19.85,-0.056 17.495,6.203 26.707,23.806c40.072,76.568 277.797,509.078 284.813,526.423c1.108,2.74 6.064,4.335 5.136,-2.92c-4.535,-35.466 -2.753,-214.096 -1.438,-215.387c0.595,-0.584 0.789,-1.481 192.439,-1.422c94.231,0.029 94.019,-0.318 188.162,-0.266c11.024,0.006 0.735,11.616 -29.754,68.34c-22.461,41.788 -28.522,56.958 -34.827,57.577c-4.911,0.482 -137.128,0.329 -188.705,0.342Z" style="fill:#2c3841;"/><path d="M724.848,71.572c289.468,0.634 294.44,-2.448 293.849,3.592c-0.02,0.206 -38.525,68.456 -41.787,74.458c-6.802,12.513 -24.195,40.9 -28.371,41.22c-44.388,3.402 -233.053,0.183 -272.453,13.804c-99.192,34.291 -98.141,124.989 -101.128,127.722c-1.87,1.712 -122.266,2.889 -124.579,-0.433c-2.045,-2.937 2.032,-40.034 7.099,-60.771c17.112,-70.037 76.703,-149.331 161.449,-181.162c46.934,-17.628 97.321,-18.313 105.921,-18.43Z" style="fill:#2c3841;"/></g></svg>
